<?xml version="1.0" encoding="UTF-8"?>
<svg id="Layer_1" data-name="Layer 1" xmlns="http://www.w3.org/2000/svg" viewBox="0 0 198.62 274.87">
  <defs>
    <style>
      .cls-1 {
        fill: #fdd3b9;
      }
    </style>
  </defs>
  <path class="cls-1" d="M47.22,52.6h8.44c2.92,0,5.3,2.37,5.3,5.3v211.67c0,2.92-2.37,5.3-5.3,5.3h-8.44V52.6h0Z"/>
  <path class="cls-1" d="M132.63,0h8.44c2.92,0,5.3,2.37,5.3,5.3v211.67c0,2.92-2.37,5.3-5.3,5.3h-8.44V0h0Z"/>
  <path class="cls-1" d="M196.41,177.73l-97.1-81.79h0s0,0,0,0h0s0,0,0,0L2.21,177.73c-2.62,2.21-2.95,6.12-.75,8.73l4.86,5.77,92.99-78.33,92.99,78.33,4.86-5.77c2.21-2.62,1.87-6.53-.75-8.73Z"/>
</svg>